STARTFONT 2.1
FONT -ibm-courier-medium-o-normal--18-180-75-75-m-90-iso8859-2
SIZE 18 75 75
FONTBOUNDINGBOX 15 18 -1 -2
COMMENT $Header: courO18.bdf,v 1.1 96/01/22 23:45:36 peterlin Exp $
COMMENT 
COMMENT Copyright International Business Machines,Corp. 1991
COMMENT IBM Courier is a Trademark of the IBM Corporation.
COMMENT 
COMMENT Automatic rendering from Adobe Type 1 outline:
COMMENT Primoz Peterlin <primoz.peterlin@biofiz.mf.uni-lj.si>
COMMENT couri.pfa rendered at 18.000000 points
COMMENT Checksum eb69a063
STARTPROPERTIES 3
FONT_ASCENT 15
FONT_DESCENT 2
DEFAULT_CHAR 32
ENDPROPERTIES
CHARS 191
STARTCHAR space
ENCODING 32
SWIDTH 582 0
DWIDTH 11 0
BBX 0 0 0 1
BITMAP
ENDCHAR
STARTCHAR exclam
ENCODING 33
SWIDTH 582 0
DWIDTH 11 0
BBX 5 11 4 1
BITMAP
18
18
10
10
10
10
20
00
00
60
e0
ENDCHAR
STARTCHAR quotedbl
ENCODING 34
SWIDTH 582 0
DWIDTH 11 0
BBX 7 5 4 7
BITMAP
66
44
cc
cc
cc
ENDCHAR
STARTCHAR numbersign
ENCODING 35
SWIDTH 582 0
DWIDTH 11 0
BBX 10 14 2 0
BITMAP
0c80
0880
0880
0980
1100
7fc0
1100
1200
2200
ff80
2200
6400
4400
4400
ENDCHAR
STARTCHAR dollar
ENCODING 36
SWIDTH 582 0
DWIDTH 11 0
BBX 9 15 2 -2
BITMAP
0200
0e80
1f80
2480
2400
2400
1c00
0b00
0900
4900
4a00
fc00
1000
1000
1000
ENDCHAR
STARTCHAR percent
ENCODING 37
SWIDTH 582 0
DWIDTH 11 0
BBX 8 12 3 1
BITMAP
70
c8
88
88
f3
1c
f0
ce
11
21
22
1c
ENDCHAR
STARTCHAR ampersand
ENCODING 38
SWIDTH 582 0
DWIDTH 11 0
BBX 8 10 2 1
BITMAP
0f
11
10
10
39
69
4a
86
cc
72
ENDCHAR
STARTCHAR quoteright
ENCODING 39
SWIDTH 582 0
DWIDTH 11 0
BBX 4 5 5 7
BITMAP
30
60
40
c0
80
ENDCHAR
STARTCHAR parenleft
ENCODING 40
SWIDTH 582 0
DWIDTH 11 0
BBX 5 14 6 -1
BITMAP
08
10
10
20
40
40
80
80
80
80
80
80
40
40
ENDCHAR
STARTCHAR parenright
ENCODING 41
SWIDTH 582 0
DWIDTH 11 0
BBX 5 14 2 -1
BITMAP
10
08
08
08
08
08
08
08
10
10
10
20
40
40
ENDCHAR
STARTCHAR asterisk
ENCODING 42
SWIDTH 582 0
DWIDTH 11 0
BBX 7 7 4 5
BITMAP
18
10
d6
78
38
48
48
ENDCHAR
STARTCHAR plus
ENCODING 43
SWIDTH 582 0
DWIDTH 11 0
BBX 9 9 2 2
BITMAP
0800
0800
0800
0800
ff80
0800
0800
0800
0800
ENDCHAR
STARTCHAR comma
ENCODING 44
SWIDTH 582 0
DWIDTH 11 0
BBX 4 5 3 -1
BITMAP
30
60
60
c0
c0
ENDCHAR
STARTCHAR minus
ENCODING 45
SWIDTH 582 0
DWIDTH 11 0
BBX 9 1 2 6
BITMAP
ff80
ENDCHAR
STARTCHAR period
ENCODING 46
SWIDTH 582 0
DWIDTH 11 0
BBX 3 3 4 1
BITMAP
60
e0
40
ENDCHAR
STARTCHAR slash
ENCODING 47
SWIDTH 582 0
DWIDTH 11 0
BBX 11 16 1 -2
BITMAP
0020
0040
0040
0080
0100
0100
0200
0400
0400
0800
1000
1000
2000
4000
4000
8000
ENDCHAR
STARTCHAR zero
ENCODING 48
SWIDTH 582 0
DWIDTH 11 0
BBX 8 12 3 1
BITMAP
1e
33
21
41
41
81
81
82
82
84
cc
70
ENDCHAR
STARTCHAR one
ENCODING 49
SWIDTH 582 0
DWIDTH 11 0
BBX 8 12 2 1
BITMAP
06
1a
22
04
04
04
04
0c
08
08
08
ff
ENDCHAR
STARTCHAR two
ENCODING 50
SWIDTH 582 0
DWIDTH 11 0
BBX 9 12 2 1
BITMAP
0e00
3100
2080
0080
0180
0100
0200
0c00
1800
2200
c200
fe00
ENDCHAR
STARTCHAR three
ENCODING 51
SWIDTH 582 0
DWIDTH 11 0
BBX 8 12 2 1
BITMAP
0e
31
01
01
02
0c
02
01
01
01
06
78
ENDCHAR
STARTCHAR four
ENCODING 52
SWIDTH 582 0
DWIDTH 11 0
BBX 8 12 2 1
BITMAP
03
05
05
0a
12
22
22
44
ff
04
04
3e
ENDCHAR
STARTCHAR five
ENCODING 53
SWIDTH 582 0
DWIDTH 11 0
BBX 9 12 2 1
BITMAP
1f80
1000
2000
2000
2000
3e00
2100
0100
0100
0200
0600
7c00
ENDCHAR
STARTCHAR six
ENCODING 54
SWIDTH 582 0
DWIDTH 11 0
BBX 9 12 3 1
BITMAP
0780
1800
2000
4000
4000
7c00
c600
8200
8200
8600
8c00
7800
ENDCHAR
STARTCHAR seven
ENCODING 55
SWIDTH 582 0
DWIDTH 11 0
BBX 8 12 4 1
BITMAP
ff
81
82
06
04
0c
08
10
30
20
60
40
ENDCHAR
STARTCHAR eight
ENCODING 56
SWIDTH 582 0
DWIDTH 11 0
BBX 8 12 3 1
BITMAP
1e
23
41
41
42
66
3c
42
82
82
84
78
ENDCHAR
STARTCHAR nine
ENCODING 57
SWIDTH 582 0
DWIDTH 11 0
BBX 9 12 2 1
BITMAP
0e00
1900
1080
2080
2080
2180
1f00
0100
0100
0200
0c00
f800
ENDCHAR
STARTCHAR colon
ENCODING 58
SWIDTH 582 0
DWIDTH 11 0
BBX 4 8 4 1
BITMAP
30
70
20
00
00
60
e0
40
ENDCHAR
STARTCHAR semicolon
ENCODING 59
SWIDTH 582 0
DWIDTH 11 0
BBX 5 10 3 -1
BITMAP
18
38
10
00
00
30
20
60
40
c0
ENDCHAR
STARTCHAR less
ENCODING 60
SWIDTH 582 0
DWIDTH 11 0
BBX 9 8 2 3
BITMAP
0180
0600
1800
6000
6000
1800
0700
0180
ENDCHAR
STARTCHAR equal
ENCODING 61
SWIDTH 582 0
DWIDTH 11 0
BBX 9 4 2 5
BITMAP
ff80
0000
0000
ff80
ENDCHAR
STARTCHAR greater
ENCODING 62
SWIDTH 582 0
DWIDTH 11 0
BBX 9 8 3 3
BITMAP
8000
7000
0c00
0300
0300
1c00
f000
c000
ENDCHAR
STARTCHAR question
ENCODING 63
SWIDTH 582 0
DWIDTH 11 0
BBX 7 11 4 1
BITMAP
7c
c6
82
02
0c
10
20
20
00
60
e0
ENDCHAR
STARTCHAR at
ENCODING 64
SWIDTH 582 0
DWIDTH 11 0
BBX 11 10 1 1
BITMAP
0fc0
1060
26a0
4920
8920
9240
9640
9f80
4080
3f00
ENDCHAR
STARTCHAR A
ENCODING 65
SWIDTH 582 0
DWIDTH 11 0
BBX 11 11 0 1
BITMAP
0f00
0300
0280
0480
0c80
0880
1880
1fc0
2040
6040
f1e0
ENDCHAR
STARTCHAR B
ENCODING 66
SWIDTH 582 0
DWIDTH 11 0
BBX 10 11 1 1
BITMAP
3f80
10c0
1040
1040
1080
1f00
20c0
2040
2040
2080
ff00
ENDCHAR
STARTCHAR C
ENCODING 67
SWIDTH 582 0
DWIDTH 11 0
BBX 11 11 2 1
BITMAP
0f20
10c0
2040
4040
c000
8000
8000
8000
8000
4080
3f00
ENDCHAR
STARTCHAR D
ENCODING 68
SWIDTH 582 0
DWIDTH 11 0
BBX 11 11 1 1
BITMAP
3f80
10c0
1020
1020
2020
2020
2040
2040
2080
4100
fe00
ENDCHAR
STARTCHAR E
ENCODING 69
SWIDTH 582 0
DWIDTH 11 0
BBX 11 11 1 1
BITMAP
3fe0
1020
1020
1020
1100
1e00
2200
2000
2080
2080
ff80
ENDCHAR
STARTCHAR F
ENCODING 70
SWIDTH 582 0
DWIDTH 11 0
BBX 11 11 1 1
BITMAP
3fe0
1020
1020
1120
1100
1e00
2200
2000
2000
2000
f800
ENDCHAR
STARTCHAR G
ENCODING 71
SWIDTH 582 0
DWIDTH 11 0
BBX 11 11 2 1
BITMAP
0f20
30c0
2040
4040
8000
8000
87c0
8080
8080
4100
3e00
ENDCHAR
STARTCHAR H
ENCODING 72
SWIDTH 582 0
DWIDTH 11 0
BBX 12 11 1 1
BITMAP
3cf0
1040
1040
1040
1040
1f80
2080
2080
2080
2080
f3c0
ENDCHAR
STARTCHAR I
ENCODING 73
SWIDTH 582 0
DWIDTH 11 0
BBX 10 11 2 1
BITMAP
3fc0
0400
0400
0400
0400
0400
0800
0800
0800
0800
ff00
ENDCHAR
STARTCHAR J
ENCODING 74
SWIDTH 582 0
DWIDTH 11 0
BBX 12 11 1 1
BITMAP
07f0
0080
0080
0080
0080
0100
4100
c100
8100
c200
7c00
ENDCHAR
STARTCHAR K
ENCODING 75
SWIDTH 582 0
DWIDTH 11 0
BBX 12 11 1 1
BITMAP
3ef0
0840
1880
1300
1600
1c00
1200
2300
2100
2100
f0c0
ENDCHAR
STARTCHAR L
ENCODING 76
SWIDTH 582 0
DWIDTH 11 0
BBX 10 11 1 1
BITMAP
3e00
0800
0800
1000
1000
1000
1040
1040
2040
2040
ff80
ENDCHAR
STARTCHAR M
ENCODING 77
SWIDTH 582 0
DWIDTH 11 0
BBX 13 11 0 1
BITMAP
3838
1450
1460
14a0
14a0
2520
2520
2220
2020
4040
f1e0
ENDCHAR
STARTCHAR N
ENCODING 78
SWIDTH 582 0
DWIDTH 11 0
BBX 13 11 0 1
BITMAP
3c78
1420
1420
1220
1220
1220
2240
2140
2140
2140
f8c0
ENDCHAR
STARTCHAR O
ENCODING 79
SWIDTH 582 0
DWIDTH 11 0
BBX 10 11 2 1
BITMAP
0f00
3080
60c0
4040
8040
8040
8040
8080
8100
4200
3c00
ENDCHAR
STARTCHAR P
ENCODING 80
SWIDTH 582 0
DWIDTH 11 0
BBX 10 11 2 1
BITMAP
3f80
10c0
1040
1040
1040
2080
3f00
2000
2000
2000
f800
ENDCHAR
STARTCHAR Q
ENCODING 81
SWIDTH 582 0
DWIDTH 11 0
BBX 10 13 2 -1
BITMAP
0f00
3080
60c0
4040
8040
8040
8040
8080
8100
4200
7c00
2000
5f00
ENDCHAR
STARTCHAR R
ENCODING 82
SWIDTH 582 0
DWIDTH 11 0
BBX 10 11 1 1
BITMAP
3f80
1040
1040
1040
1080
1f00
2200
2200
2100
2100
f1c0
ENDCHAR
STARTCHAR S
ENCODING 83
SWIDTH 582 0
DWIDTH 11 0
BBX 11 11 1 1
BITMAP
0720
08e0
1040
1040
1000
0f00
0180
0080
4080
6100
fe00
ENDCHAR
STARTCHAR T
ENCODING 84
SWIDTH 582 0
DWIDTH 11 0
BBX 10 11 2 1
BITMAP
7fc0
8440
8440
8440
0800
0800
0800
0800
1000
1000
7c00
ENDCHAR
STARTCHAR U
ENCODING 85
SWIDTH 582 0
DWIDTH 11 0
BBX 10 11 3 1
BITMAP
f3c0
4080
4080
4100
4100
8100
8100
8200
8200
8600
7800
ENDCHAR
STARTCHAR V
ENCODING 86
SWIDTH 582 0
DWIDTH 11 0
BBX 11 11 2 1
BITMAP
f1e0
4080
4080
2100
2100
2200
2200
2400
1400
1800
1000
ENDCHAR
STARTCHAR W
ENCODING 87
SWIDTH 582 0
DWIDTH 11 0
BBX 11 11 2 1
BITMAP
f1e0
4040
4440
4480
5c80
5480
9480
a500
a500
c500
8200
ENDCHAR
STARTCHAR X
ENCODING 88
SWIDTH 582 0
DWIDTH 11 0
BBX 12 11 1 1
BITMAP
1cf0
0840
0880
0480
0500
0200
0600
0900
1100
2080
f3c0
ENDCHAR
STARTCHAR Y
ENCODING 89
SWIDTH 582 0
DWIDTH 11 0
BBX 10 11 3 1
BITMAP
f3c0
4100
2100
2200
1400
1800
1000
1000
1000
1000
f800
ENDCHAR
STARTCHAR Z
ENCODING 90
SWIDTH 582 0
DWIDTH 11 0
BBX 10 11 2 1
BITMAP
3fc0
2080
2100
2200
0400
0c00
1800
1080
2080
4080
ff00
ENDCHAR
STARTCHAR bracketleft
ENCODING 91
SWIDTH 582 0
DWIDTH 11 0
BBX 6 14 6 -1
BITMAP
1c
10
20
20
20
20
20
40
40
40
40
40
80
e0
ENDCHAR
STARTCHAR backslash
ENCODING 92
SWIDTH 582 0
DWIDTH 11 0
BBX 5 16 4 -2
BITMAP
80
80
40
40
40
40
60
20
20
20
30
10
10
10
18
08
ENDCHAR
STARTCHAR bracketright
ENCODING 93
SWIDTH 582 0
DWIDTH 11 0
BBX 6 14 2 -1
BITMAP
1c
04
04
08
08
08
08
08
10
10
10
10
20
e0
ENDCHAR
STARTCHAR asciicircum
ENCODING 94
SWIDTH 582 0
DWIDTH 11 0
BBX 9 8 2 4
BITMAP
1c00
1400
3600
3200
6200
6300
c100
c180
ENDCHAR
STARTCHAR underscore
ENCODING 95
SWIDTH 582 0
DWIDTH 11 0
BBX 13 1 -1 -1
BITMAP
fff8
ENDCHAR
STARTCHAR quoteleft
ENCODING 96
SWIDTH 582 0
DWIDTH 11 0
BBX 4 5 5 7
BITMAP
10
30
20
60
c0
ENDCHAR
STARTCHAR a
ENCODING 97
SWIDTH 582 0
DWIDTH 11 0
BBX 9 8 2 1
BITMAP
3f00
0100
0100
3f00
4200
8200
8600
fb80
ENDCHAR
STARTCHAR b
ENCODING 98
SWIDTH 582 0
DWIDTH 11 0
BBX 11 12 0 1
BITMAP
1800
0800
0800
0800
17c0
1c60
1020
1020
1020
3040
30c0
ef00
ENDCHAR
STARTCHAR c
ENCODING 99
SWIDTH 582 0
DWIDTH 11 0
BBX 9 8 2 1
BITMAP
1f80
2080
4080
8000
8000
8000
c300
3e00
ENDCHAR
STARTCHAR d
ENCODING 100
SWIDTH 582 0
DWIDTH 11 0
BBX 10 11 2 1
BITMAP
0040
00c0
0080
1e80
6180
4180
8100
8100
8300
c700
7d80
ENDCHAR
STARTCHAR e
ENCODING 101
SWIDTH 582 0
DWIDTH 11 0
BBX 9 8 2 1
BITMAP
1f00
2080
4080
ff80
8000
8000
c100
3e00
ENDCHAR
STARTCHAR f
ENCODING 102
SWIDTH 582 0
DWIDTH 11 0
BBX 10 12 2 1
BITMAP
07c0
0800
0800
0800
3f00
1000
1000
1000
1000
1000
2000
fc00
ENDCHAR
STARTCHAR g
ENCODING 103
SWIDTH 582 0
DWIDTH 11 0
BBX 10 11 2 -2
BITMAP
1ec0
6300
4100
8100
8100
8300
4600
7a00
0200
0400
7800
ENDCHAR
STARTCHAR h
ENCODING 104
SWIDTH 582 0
DWIDTH 11 0
BBX 10 12 1 1
BITMAP
3800
1000
1000
1000
1780
1840
2040
20c0
2080
2080
2080
f3c0
ENDCHAR
STARTCHAR i
ENCODING 105
SWIDTH 582 0
DWIDTH 11 0
BBX 8 12 2 1
BITMAP
06
04
00
00
3c
04
04
08
08
08
08
ff
ENDCHAR
STARTCHAR j
ENCODING 106
SWIDTH 582 0
DWIDTH 11 0
BBX 9 15 1 -2
BITMAP
0180
0100
0000
0000
3f00
0100
0100
0100
0100
0200
0200
0200
0600
0400
f800
ENDCHAR
STARTCHAR k
ENCODING 107
SWIDTH 582 0
DWIDTH 11 0
BBX 11 12 1 1
BITMAP
3800
0800
0800
0800
11e0
1300
1600
1c00
3600
2300
2100
e3c0
ENDCHAR
STARTCHAR l
ENCODING 108
SWIDTH 582 0
DWIDTH 11 0
BBX 8 12 2 1
BITMAP
1e
22
04
04
04
04
04
08
08
08
08
ff
ENDCHAR
STARTCHAR m
ENCODING 109
SWIDTH 582 0
DWIDTH 11 0
BBX 12 8 0 1
BITMAP
3ee0
1110
2210
2230
2220
2220
2220
f770
ENDCHAR
STARTCHAR n
ENCODING 110
SWIDTH 582 0
DWIDTH 11 0
BBX 10 8 1 1
BITMAP
7f80
1040
2040
20c0
2080
2080
4080
f3c0
ENDCHAR
STARTCHAR o
ENCODING 111
SWIDTH 582 0
DWIDTH 11 0
BBX 9 8 2 1
BITMAP
1f00
6180
4080
8080
8080
8100
c300
7c00
ENDCHAR
STARTCHAR p
ENCODING 112
SWIDTH 582 0
DWIDTH 11 0
BBX 11 11 0 -2
BITMAP
37c0
1c20
1020
1020
1020
3040
38c0
2f00
2000
2000
f800
ENDCHAR
STARTCHAR q
ENCODING 113
SWIDTH 582 0
DWIDTH 11 0
BBX 11 11 2 -2
BITMAP
1ee0
6180
4180
8100
8100
8100
c700
7900
0200
0200
1f00
ENDCHAR
STARTCHAR r
ENCODING 114
SWIDTH 582 0
DWIDTH 11 0
BBX 11 8 1 1
BITMAP
3be0
0e60
0800
1800
1000
1000
1000
fe00
ENDCHAR
STARTCHAR s
ENCODING 115
SWIDTH 582 0
DWIDTH 11 0
BBX 9 8 2 1
BITMAP
3f80
6100
4000
3c00
0300
8100
c300
be00
ENDCHAR
STARTCHAR t
ENCODING 116
SWIDTH 582 0
DWIDTH 11 0
BBX 8 11 3 1
BITMAP
20
20
20
7e
20
20
40
40
40
41
7e
ENDCHAR
STARTCHAR u
ENCODING 117
SWIDTH 582 0
DWIDTH 11 0
BBX 9 8 2 1
BITMAP
e380
2100
4100
4100
4100
4100
4600
3b80
ENDCHAR
STARTCHAR v
ENCODING 118
SWIDTH 582 0
DWIDTH 11 0
BBX 11 8 2 1
BITMAP
f1e0
2080
2100
2100
3200
1400
1800
1800
ENDCHAR
STARTCHAR w
ENCODING 119
SWIDTH 582 0
DWIDTH 11 0
BBX 11 8 2 1
BITMAP
e0e0
4440
4440
4c80
4c80
5500
5500
6200
ENDCHAR
STARTCHAR x
ENCODING 120
SWIDTH 582 0
DWIDTH 11 0
BBX 12 8 0 1
BITMAP
3cf0
08c0
0d80
0600
0f00
1900
3080
f1e0
ENDCHAR
STARTCHAR y
ENCODING 121
SWIDTH 582 0
DWIDTH 11 0
BBX 10 11 2 -2
BITMAP
f3c0
4080
4100
4100
4100
4300
6500
3a00
0200
0600
7800
ENDCHAR
STARTCHAR z
ENCODING 122
SWIDTH 582 0
DWIDTH 11 0
BBX 9 8 2 1
BITMAP
3f80
2100
0200
0c00
1800
2100
4100
fe00
ENDCHAR
STARTCHAR braceleft
ENCODING 123
SWIDTH 582 0
DWIDTH 11 0
BBX 6 14 5 -1
BITMAP
0c
10
10
10
10
10
60
60
20
20
40
40
40
30
ENDCHAR
STARTCHAR bar
ENCODING 124
SWIDTH 582 0
DWIDTH 11 0
BBX 1 16 6 -2
BITMAP
80
80
80
80
80
80
80
80
80
80
80
80
80
80
80
80
ENDCHAR
STARTCHAR braceright
ENCODING 125
SWIDTH 582 0
DWIDTH 11 0
BBX 6 14 2 -1
BITMAP
1c
04
04
08
08
08
04
08
10
10
10
10
30
c0
ENDCHAR
STARTCHAR asciitilde
ENCODING 126
SWIDTH 582 0
DWIDTH 11 0
BBX 8 3 3 5
BITMAP
61
de
84
ENDCHAR
STARTCHAR space
ENCODING 160
SWIDTH 582 0
DWIDTH 11 0
BBX 0 0 0 1
BITMAP
ENDCHAR
STARTCHAR Aogonek
ENCODING 161
SWIDTH 582 0
DWIDTH 11 0
BBX 11 13 0 -1
BITMAP
0f80
0180
0280
0680
0480
0840
0840
1fc0
3040
2040
f1e0
0080
00c0
ENDCHAR
STARTCHAR breve
ENCODING 162
SWIDTH 582 0
DWIDTH 11 0
BBX 6 2 5 11
BITMAP
84
78
ENDCHAR
STARTCHAR Lslash
ENCODING 163
SWIDTH 582 0
DWIDTH 11 0
BBX 10 11 1 1
BITMAP
3e00
0800
0800
1300
1c00
7040
6040
2040
2040
2080
ff80
ENDCHAR
STARTCHAR currency
ENCODING 164
SWIDTH 582 0
DWIDTH 11 0
BBX 8 9 3 2
BITMAP
81
ff
44
82
82
82
44
fe
81
ENDCHAR
STARTCHAR Lcaron
ENCODING 165
SWIDTH 582 0
DWIDTH 11 0
BBX 11 12 1 1
BITMAP
00c0
3e80
0800
0800
1000
1000
1000
1040
1040
2040
2040
ff80
ENDCHAR
STARTCHAR Sacute
ENCODING 166
SWIDTH 582 0
DWIDTH 11 0
BBX 11 14 1 1
BITMAP
0180
0100
0000
0720
08e0
1040
1040
1000
0f00
0180
0080
4080
6100
fe00
ENDCHAR
STARTCHAR section
ENCODING 167
SWIDTH 582 0
DWIDTH 11 0
BBX 9 13 2 -1
BITMAP
0f80
1080
1080
1800
2c00
2600
2300
1100
0a00
0400
4400
cc00
f800
ENDCHAR
STARTCHAR dieresis
ENCODING 168
SWIDTH 582 0
DWIDTH 11 0
BBX 5 2 6 11
BITMAP
d8
90
ENDCHAR
STARTCHAR Scaron
ENCODING 169
SWIDTH 582 0
DWIDTH 11 0
BBX 11 15 1 1
BITMAP
0120
0360
01c0
0000
0720
08e0
1040
1040
1000
0f00
0180
0080
4080
6100
fe00
ENDCHAR
STARTCHAR Scedilla
ENCODING 170
SWIDTH 582 0
DWIDTH 11 0
BBX 11 14 1 -2
BITMAP
07a0
08e0
1040
1040
1000
0e00
0180
0080
4080
6100
de00
0800
0c00
3c00
ENDCHAR
STARTCHAR Tcaron
ENCODING 171
SWIDTH 582 0
DWIDTH 11 0
BBX 10 15 2 1
BITMAP
0480
0d80
0700
0000
7fc0
8440
8440
8440
0800
0800
0800
0800
1000
1000
7c00
ENDCHAR
STARTCHAR Zacute
ENCODING 172
SWIDTH 582 0
DWIDTH 11 0
BBX 10 14 2 1
BITMAP
0300
0200
0000
3fc0
2080
2100
2200
0400
0c00
1800
1080
2080
4080
ff00
ENDCHAR
STARTCHAR hyphen
ENCODING 173
SWIDTH 582 0
DWIDTH 11 0
BBX 4 1 5 6
BITMAP
f0
ENDCHAR
STARTCHAR Zcaron
ENCODING 174
SWIDTH 582 0
DWIDTH 11 0
BBX 10 15 2 1
BITMAP
0480
0d80
0700
0000
3fc0
2080
2100
2200
0400
0c00
1800
1080
2080
4080
ff00
ENDCHAR
STARTCHAR Zdotaccent
ENCODING 175
SWIDTH 582 0
DWIDTH 11 0
BBX 10 14 2 1
BITMAP
0200
0200
0000
3fc0
2080
2100
2200
0400
0c00
1800
1080
2080
4080
ff00
ENDCHAR
STARTCHAR degree
ENCODING 176
SWIDTH 582 0
DWIDTH 11 0
BBX 6 6 4 7
BITMAP
70
48
84
84
cc
78
ENDCHAR
STARTCHAR aogonek
ENCODING 177
SWIDTH 582 0
DWIDTH 11 0
BBX 9 10 2 -1
BITMAP
1f00
0100
0100
3f00
4200
8200
8600
fb80
0400
0600
ENDCHAR
STARTCHAR ogonek
ENCODING 178
SWIDTH 582 0
DWIDTH 11 0
BBX 4 2 4 -1
BITMAP
80
e0
ENDCHAR
STARTCHAR lslash
ENCODING 179
SWIDTH 582 0
DWIDTH 11 0
BBX 9 12 2 1
BITMAP
1e00
2200
0400
0400
0580
0600
7c00
6800
0800
0800
0800
ff00
ENDCHAR
STARTCHAR acute
ENCODING 180
SWIDTH 582 0
DWIDTH 11 0
BBX 4 2 6 11
BITMAP
60
40
ENDCHAR
STARTCHAR lcaron
ENCODING 181
SWIDTH 582 0
DWIDTH 11 0
BBX 11 12 2 1
BITMAP
1ec0
2280
0400
0400
0400
0400
0400
0800
0800
0800
0800
ff00
ENDCHAR
STARTCHAR sacute
ENCODING 182
SWIDTH 582 0
DWIDTH 11 0
BBX 9 12 2 1
BITMAP
0600
0400
0000
0000
3f80
6100
4000
3c00
0300
8100
c300
be00
ENDCHAR
STARTCHAR caron
ENCODING 183
SWIDTH 582 0
DWIDTH 11 0
BBX 5 2 6 11
BITMAP
d8
70
ENDCHAR
STARTCHAR cedilla
ENCODING 184
SWIDTH 582 0
DWIDTH 11 0
BBX 4 4 3 -2
BITMAP
20
30
10
f0
ENDCHAR
STARTCHAR scaron
ENCODING 185
SWIDTH 582 0
DWIDTH 11 0
BBX 9 12 2 1
BITMAP
0d80
0700
0000
0000
3f80
6100
4000
3c00
0300
8100
c300
be00
ENDCHAR
STARTCHAR scedilla
ENCODING 186
SWIDTH 582 0
DWIDTH 11 0
BBX 9 11 2 -2
BITMAP
3f80
6100
4000
7c00
0300
8100
c300
bc00
1800
0800
3800
ENDCHAR
STARTCHAR tcaron
ENCODING 187
SWIDTH 582 0
DWIDTH 11 0
BBX 8 12 3 1
BITMAP
06
24
20
20
7e
20
20
40
40
40
41
7e
ENDCHAR
STARTCHAR zacute
ENCODING 188
SWIDTH 582 0
DWIDTH 11 0
BBX 9 12 2 1
BITMAP
0600
0400
0000
0000
3f80
2100
0200
0c00
1800
2100
4100
fe00
ENDCHAR
STARTCHAR hungarumlaut
ENCODING 189
SWIDTH 582 0
DWIDTH 11 0
BBX 6 2 5 11
BITMAP
28
50
ENDCHAR
STARTCHAR zcaron
ENCODING 190
SWIDTH 582 0
DWIDTH 11 0
BBX 9 12 2 1
BITMAP
0d80
0700
0000
0000
3f80
2100
0200
0c00
1800
2100
4100
fe00
ENDCHAR
STARTCHAR zdotaccent
ENCODING 191
SWIDTH 582 0
DWIDTH 11 0
BBX 9 12 2 1
BITMAP
0400
0400
0000
0000
3f80
2100
0200
0c00
1800
2100
4100
fe00
ENDCHAR
STARTCHAR Racute
ENCODING 192
SWIDTH 582 0
DWIDTH 11 0
BBX 10 14 1 1
BITMAP
0180
0100
0000
3f80
1040
1040
1040
1080
1f00
2200
2200
2100
2100
f1c0
ENDCHAR
STARTCHAR Aacute
ENCODING 193
SWIDTH 582 0
DWIDTH 11 0
BBX 11 14 0 1
BITMAP
0180
0100
0000
0f00
0300
0280
0480
0c80
0880
1880
1fc0
2040
6040
f1e0
ENDCHAR
STARTCHAR Acircumflex
ENCODING 194
SWIDTH 582 0
DWIDTH 11 0
BBX 11 14 0 1
BITMAP
0380
04c0
0000
0f00
0300
0280
0480
0c80
0880
1880
1fc0
2040
6040
f1e0
ENDCHAR
STARTCHAR Abreve
ENCODING 195
SWIDTH 582 0
DWIDTH 11 0
BBX 11 15 0 1
BITMAP
0620
0240
0380
0000
0f00
0300
0280
0480
0c80
0880
1880
1fc0
2040
6040
f1e0
ENDCHAR
STARTCHAR Adieresis
ENCODING 196
SWIDTH 582 0
DWIDTH 11 0
BBX 11 14 0 1
BITMAP
0360
0240
0000
0f00
0300
0280
0480
0c80
0880
1880
1fc0
2040
6040
f1e0
ENDCHAR
STARTCHAR Lacute
ENCODING 197
SWIDTH 582 0
DWIDTH 11 0
BBX 10 14 1 1
BITMAP
0c00
0800
0000
3e00
0800
0800
1000
1000
1000
1040
1040
2040
2040
ff80
ENDCHAR
STARTCHAR Cacute
ENCODING 198
SWIDTH 582 0
DWIDTH 11 0
BBX 11 14 2 1
BITMAP
0300
0200
0000
0f20
10c0
2040
4040
c000
8000
8000
8000
8000
4080
3f00
ENDCHAR
STARTCHAR Ccedilla
ENCODING 199
SWIDTH 582 0
DWIDTH 11 0
BBX 11 14 2 -2
BITMAP
0f20
10e0
2040
4040
c000
8000
8000
8000
8000
4080
3f00
0800
0400
3800
ENDCHAR
STARTCHAR Ccaron
ENCODING 200
SWIDTH 582 0
DWIDTH 11 0
BBX 11 15 2 1
BITMAP
0240
06c0
0380
0000
0f20
10c0
2040
4040
c000
8000
8000
8000
8000
4080
3f00
ENDCHAR
STARTCHAR Eacute
ENCODING 201
SWIDTH 582 0
DWIDTH 11 0
BBX 11 14 1 1
BITMAP
0180
0100
0000
3fe0
1020
1020
1020
1100
1e00
2200
2000
2080
2080
ff80
ENDCHAR
STARTCHAR Eogonek
ENCODING 202
SWIDTH 582 0
DWIDTH 11 0
BBX 11 13 1 -1
BITMAP
3fe0
0820
1020
1020
1100
1f00
1100
2000
2040
2040
ff80
0200
0300
ENDCHAR
STARTCHAR Edieresis
ENCODING 203
SWIDTH 582 0
DWIDTH 11 0
BBX 11 14 1 1
BITMAP
0360
0240
0000
3fe0
1020
1020
1020
1100
1e00
2200
2000
2080
2080
ff80
ENDCHAR
STARTCHAR Ecaron
ENCODING 204
SWIDTH 582 0
DWIDTH 11 0
BBX 11 15 1 1
BITMAP
0120
0360
01c0
0000
3fe0
1020
1020
1020
1100
1e00
2200
2000
2080
2080
ff80
ENDCHAR
STARTCHAR Iacute
ENCODING 205
SWIDTH 582 0
DWIDTH 11 0
BBX 10 14 2 1
BITMAP
0300
0200
0000
3fc0
0400
0400
0400
0400
0400
0800
0800
0800
0800
ff00
ENDCHAR
STARTCHAR Icircumflex
ENCODING 206
SWIDTH 582 0
DWIDTH 11 0
BBX 10 14 2 1
BITMAP
0700
0980
0000
3fc0
0400
0400
0400
0400
0400
0800
0800
0800
0800
ff00
ENDCHAR
STARTCHAR Dcaron
ENCODING 207
SWIDTH 582 0
DWIDTH 11 0
BBX 11 15 1 1
BITMAP
0240
06c0
0380
0000
3f80
10c0
1020
1020
2020
2020
2040
2040
2080
4100
fe00
ENDCHAR
STARTCHAR Eth
ENCODING 208
SWIDTH 582 0
DWIDTH 11 0
BBX 11 11 1 1
BITMAP
3f80
10c0
1020
1020
1020
7c20
2040
2040
2080
4180
fe00
ENDCHAR
STARTCHAR Nacute
ENCODING 209
SWIDTH 582 0
DWIDTH 11 0
BBX 13 14 0 1
BITMAP
00c0
0080
0000
3c78
1420
1420
1220
1220
1220
2240
2140
2140
2140
f8c0
ENDCHAR
STARTCHAR Ncaron
ENCODING 210
SWIDTH 582 0
DWIDTH 11 0
BBX 13 15 0 1
BITMAP
0090
01b0
00e0
0000
3c78
1420
1420
1220
1220
1220
2240
2140
2140
2140
f8c0
ENDCHAR
STARTCHAR Oacute
ENCODING 211
SWIDTH 582 0
DWIDTH 11 0
BBX 10 14 2 1
BITMAP
0300
0200
0000
0f00
3080
60c0
4040
8040
8040
8040
8080
8100
4200
3c00
ENDCHAR
STARTCHAR Ocircumflex
ENCODING 212
SWIDTH 582 0
DWIDTH 11 0
BBX 10 14 2 1
BITMAP
0700
0980
0000
0f00
3080
60c0
4040
8040
8040
8040
8080
8100
4200
3c00
ENDCHAR
STARTCHAR Ohungarumlaut
ENCODING 213
SWIDTH 582 0
DWIDTH 11 0
BBX 10 14 2 1
BITMAP
0280
0500
0000
0f00
3080
60c0
4040
8040
8040
8040
8080
8100
4200
3c00
ENDCHAR
STARTCHAR Odieresis
ENCODING 214
SWIDTH 582 0
DWIDTH 11 0
BBX 10 14 2 1
BITMAP
06c0
0480
0000
0f00
3080
60c0
4040
8040
8040
8040
8080
8100
4200
3c00
ENDCHAR
STARTCHAR multiply
ENCODING 215
SWIDTH 582 0
DWIDTH 11 0
BBX 7 7 3 3
BITMAP
c2
4e
38
38
6c
c6
42
ENDCHAR
STARTCHAR Rcaron
ENCODING 216
SWIDTH 582 0
DWIDTH 11 0
BBX 10 15 1 1
BITMAP
0240
06c0
0380
0000
3f80
1040
1040
1040
1080
1f00
2200
2200
2100
2100
f1c0
ENDCHAR
STARTCHAR Uring
ENCODING 217
SWIDTH 582 0
DWIDTH 11 0
BBX 10 15 3 1
BITMAP
0600
0900
0600
0000
f3c0
4080
4080
4100
4100
8100
8100
8200
8200
8600
7800
ENDCHAR
STARTCHAR Uacute
ENCODING 218
SWIDTH 582 0
DWIDTH 11 0
BBX 10 14 3 1
BITMAP
0600
0400
0000
f3c0
4080
4080
4100
4100
8100
8100
8200
8200
8600
7800
ENDCHAR
STARTCHAR Uhungarumlaut
ENCODING 219
SWIDTH 582 0
DWIDTH 11 0
BBX 10 14 3 1
BITMAP
0500
0a00
0000
f3c0
4080
4080
4100
4100
8100
8100
8200
8200
8600
7800
ENDCHAR
STARTCHAR Udieresis
ENCODING 220
SWIDTH 582 0
DWIDTH 11 0
BBX 10 14 3 1
BITMAP
0d80
0900
0000
f3c0
4080
4080
4100
4100
8100
8100
8200
8200
8600
7800
ENDCHAR
STARTCHAR Yacute
ENCODING 221
SWIDTH 582 0
DWIDTH 11 0
BBX 10 14 3 1
BITMAP
0600
0400
0000
f3c0
4100
2100
2200
1400
1800
1000
1000
1000
1000
f800
ENDCHAR
STARTCHAR Tcedilla
ENCODING 222
SWIDTH 582 0
DWIDTH 11 0
BBX 11 14 2 -2
BITMAP
7fc0
4440
4440
8440
0400
0800
0800
0800
0800
1000
7e00
1800
0800
7800
ENDCHAR
STARTCHAR germandbls
ENCODING 223
SWIDTH 582 0
DWIDTH 11 0
BBX 10 12 1 1
BITMAP
0780
0840
1040
10c0
1180
1600
2100
2080
2080
2080
2100
ce00
ENDCHAR
STARTCHAR racute
ENCODING 224
SWIDTH 582 0
DWIDTH 11 0
BBX 11 12 1 1
BITMAP
0300
0200
0000
0000
3be0
0e60
0800
1800
1000
1000
1000
fe00
ENDCHAR
STARTCHAR aacute
ENCODING 225
SWIDTH 582 0
DWIDTH 11 0
BBX 9 12 2 1
BITMAP
0600
0400
0000
0000
3f00
0100
0100
3f00
4200
8200
8600
fb80
ENDCHAR
STARTCHAR acircumflex
ENCODING 226
SWIDTH 582 0
DWIDTH 11 0
BBX 9 12 2 1
BITMAP
0e00
1b00
0000
0000
3f00
0100
0100
3f00
4200
8200
8600
fb80
ENDCHAR
STARTCHAR abreve
ENCODING 227
SWIDTH 582 0
DWIDTH 11 0
BBX 9 12 2 1
BITMAP
1080
0f00
0000
0000
3f00
0100
0100
3f00
4200
8200
8600
fb80
ENDCHAR
STARTCHAR adieresis
ENCODING 228
SWIDTH 582 0
DWIDTH 11 0
BBX 9 12 2 1
BITMAP
0d80
0900
0000
0000
3f00
0100
0100
3f00
4200
8200
8600
fb80
ENDCHAR
STARTCHAR lacute
ENCODING 229
SWIDTH 582 0
DWIDTH 11 0
BBX 8 15 2 1
BITMAP
06
04
00
1e
22
04
04
04
04
04
08
08
08
08
ff
ENDCHAR
STARTCHAR cacute
ENCODING 230
SWIDTH 582 0
DWIDTH 11 0
BBX 9 12 2 1
BITMAP
0600
0400
0000
0000
1f80
2080
4080
8000
8000
8000
c300
3e00
ENDCHAR
STARTCHAR ccedilla
ENCODING 231
SWIDTH 582 0
DWIDTH 11 0
BBX 9 11 2 -2
BITMAP
1f80
2080
4080
8000
8000
8000
c300
3e00
1000
1800
7800
ENDCHAR
STARTCHAR ccaron
ENCODING 232
SWIDTH 582 0
DWIDTH 11 0
BBX 9 12 2 1
BITMAP
0d80
0700
0000
0000
1f80
2080
4080
8000
8000
8000
c300
3e00
ENDCHAR
STARTCHAR eacute
ENCODING 233
SWIDTH 582 0
DWIDTH 11 0
BBX 9 12 2 1
BITMAP
0600
0400
0000
0000
1f00
2080
4080
ff80
8000
8000
c100
3e00
ENDCHAR
STARTCHAR eogonek
ENCODING 234
SWIDTH 582 0
DWIDTH 11 0
BBX 9 10 2 -1
BITMAP
1f00
2080
4080
ff80
8000
8000
c100
7e00
1800
1800
ENDCHAR
STARTCHAR edieresis
ENCODING 235
SWIDTH 582 0
DWIDTH 11 0
BBX 9 12 2 1
BITMAP
0d80
0900
0000
0000
1f00
2080
4080
ff80
8000
8000
c100
3e00
ENDCHAR
STARTCHAR ecaron
ENCODING 236
SWIDTH 582 0
DWIDTH 11 0
BBX 9 12 2 1
BITMAP
0d80
0700
0000
0000
1f00
2080
4080
ff80
8000
8000
c100
3e00
ENDCHAR
STARTCHAR iacute
ENCODING 237
SWIDTH 582 0
DWIDTH 11 0
BBX 8 12 2 1
BITMAP
06
04
00
00
3c
04
04
08
08
08
08
ff
ENDCHAR
STARTCHAR icircumflex
ENCODING 238
SWIDTH 582 0
DWIDTH 11 0
BBX 8 12 2 1
BITMAP
0e
1b
00
00
3c
04
04
08
08
08
08
ff
ENDCHAR
STARTCHAR dcaron
ENCODING 239
SWIDTH 582 0
DWIDTH 11 0
BBX 14 12 2 1
BITMAP
0018
0050
00c0
0080
1e80
6180
4180
8100
8100
8300
c700
7d80
ENDCHAR
STARTCHAR dbar
ENCODING 240
SWIDTH 582 0
DWIDTH 11 0
BBX 11 11 2 1
BITMAP
0040
0fe0
0080
1e80
6180
4180
8100
8100
8300
c700
7d80
ENDCHAR
STARTCHAR nacute
ENCODING 241
SWIDTH 582 0
DWIDTH 11 0
BBX 10 12 1 1
BITMAP
0300
0200
0000
0000
7f80
1040
2040
20c0
2080
2080
4080
f3c0
ENDCHAR
STARTCHAR ncaron
ENCODING 242
SWIDTH 582 0
DWIDTH 11 0
BBX 10 12 1 1
BITMAP
06c0
0380
0000
0000
7f80
1040
2040
20c0
2080
2080
4080
f3c0
ENDCHAR
STARTCHAR oacute
ENCODING 243
SWIDTH 582 0
DWIDTH 11 0
BBX 9 12 2 1
BITMAP
0600
0400
0000
0000
1f00
6180
4080
8080
8080
8100
c300
7c00
ENDCHAR
STARTCHAR ocircumflex
ENCODING 244
SWIDTH 582 0
DWIDTH 11 0
BBX 9 12 2 1
BITMAP
0e00
1b00
0000
0000
1f00
6180
4080
8080
8080
8100
c300
7c00
ENDCHAR
STARTCHAR ohungarumlaut
ENCODING 245
SWIDTH 582 0
DWIDTH 11 0
BBX 9 12 2 1
BITMAP
0500
0a00
0000
0000
1f00
6180
4080
8080
8080
8100
c300
7c00
ENDCHAR
STARTCHAR odieresis
ENCODING 246
SWIDTH 582 0
DWIDTH 11 0
BBX 9 12 2 1
BITMAP
0d80
0900
0000
0000
1f00
6180
4080
8080
8080
8100
c300
7c00
ENDCHAR
STARTCHAR divide
ENCODING 247
SWIDTH 582 0
DWIDTH 11 0
BBX 8 9 3 2
BITMAP
30
10
00
00
ff
00
00
10
10
ENDCHAR
STARTCHAR rcaron
ENCODING 248
SWIDTH 582 0
DWIDTH 11 0
BBX 11 12 1 1
BITMAP
06c0
0380
0000
0000
3be0
0e60
0800
1800
1000
1000
1000
fe00
ENDCHAR
STARTCHAR uring
ENCODING 249
SWIDTH 582 0
DWIDTH 11 0
BBX 9 12 2 1
BITMAP
0e00
0a00
0400
0000
e380
2100
4100
4100
4100
4100
4600
3b80
ENDCHAR
STARTCHAR uacute
ENCODING 250
SWIDTH 582 0
DWIDTH 11 0
BBX 9 12 2 1
BITMAP
0600
0400
0000
0000
e380
2100
4100
4100
4100
4100
4600
3b80
ENDCHAR
STARTCHAR uhungarumlaut
ENCODING 251
SWIDTH 582 0
DWIDTH 11 0
BBX 9 12 2 1
BITMAP
0500
0a00
0000
0000
e380
2100
4100
4100
4100
4100
4600
3b80
ENDCHAR
STARTCHAR udieresis
ENCODING 252
SWIDTH 582 0
DWIDTH 11 0
BBX 9 12 2 1
BITMAP
0d80
0900
0000
0000
e380
2100
4100
4100
4100
4100
4600
3b80
ENDCHAR
STARTCHAR yacute
ENCODING 253
SWIDTH 582 0
DWIDTH 11 0
BBX 10 15 2 -2
BITMAP
0600
0400
0000
0000
f3c0
4080
4100
4100
4100
4300
6500
3a00
0200
0600
7800
ENDCHAR
STARTCHAR tcedilla
ENCODING 254
SWIDTH 582 0
DWIDTH 11 0
BBX 8 14 3 -2
BITMAP
20
20
20
7e
20
20
40
40
40
43
3c
18
08
70
ENDCHAR
STARTCHAR dotaccent
ENCODING 255
SWIDTH 582 0
DWIDTH 11 0
BBX 1 2 7 11
BITMAP
80
80
ENDCHAR
ENDFONT
